# Blender v2.90.1 OBJ File: 'wall1-new.blend'
# www.blender.org
mtllib center.mtl
o Cube
v 0.443693 27.089983 -1.581729
v 4.843605 1.946218 -4.812097
v 0.443693 27.089983 1.581729
v 4.843605 1.946218 4.812097
v -0.440053 27.089983 -1.581729
v -4.812097 1.946218 -4.812097
v -0.440053 27.089983 1.581729
v -4.812097 1.946218 4.812097
v 4.843605 11.570413 4.812097
v -4.812097 11.570413 4.812097
v 4.843605 11.570413 -4.812097
v -4.812097 11.570413 -4.812097
v 4.812097 1.946218 -4.812097
v 4.812097 1.946218 4.812097
v -4.812097 1.946218 -4.812097
v -4.812097 1.946218 4.812097
v 4.812097 11.570413 4.812097
v -4.812097 11.570413 4.812097
v 4.812097 11.570413 -4.812097
v -4.812097 11.570413 -4.812097
v 4.812097 1.946218 -4.812097
v -4.812097 1.946218 -4.812097
v 4.812097 11.570413 -4.812097
v -4.812097 1.946218 4.812097
v -4.812097 11.570413 4.812097
v 4.812097 11.570413 4.812097
v 4.812097 1.946218 4.812097
v -4.812097 11.570413 -4.812097
v 4.812097 1.946218 -4.812097
v -4.812097 1.946218 -4.812097
v 4.812097 11.570413 -4.812097
v -4.812097 1.946218 4.812097
v -4.812097 11.570413 4.812097
v 4.812097 11.570413 4.812097
v 4.812097 1.946218 4.812097
v -4.812097 11.570413 -4.812097
v -4.812097 1.946218 13.787940
v 4.812097 1.946218 13.787940
v 4.812097 1.946218 -14.635294
v -4.812097 1.946218 -14.635294
v 4.812097 11.570413 -14.635294
v -4.812097 11.570413 -14.635294
v 1.280159 28.146002 1.278339
v 0.920696 25.429663 2.058732
v -0.917055 25.429663 2.058732
v -0.917055 25.429663 -2.058732
v 0.920696 25.429663 -2.058732
v -1.276519 28.146002 1.278339
v -1.276519 28.146002 -1.278339
v 1.280159 28.146002 -1.278339
v 0.920696 34.120449 2.058732
v -0.917055 34.120449 2.058732
v 0.225509 36.522556 1.614704
v -0.221868 36.522556 1.614704
v 0.225509 36.522556 -1.614704
v -0.221868 36.522556 -1.614704
v 0.255907 36.145008 1.477085
v -0.252266 36.145008 1.477085
v -0.252266 36.145008 -1.477085
v 0.255907 36.145008 -1.477085
v 4.812097 11.570413 4.812097
v -4.812097 11.570413 4.812097
v 4.812097 11.570413 13.787940
v -4.812097 11.570413 13.787940
v 0.443693 35.780766 1.581729
v -0.440053 35.780766 1.581729
v -0.440053 35.780766 -1.581729
v 0.443693 35.780766 -1.581729
v 0.001820 36.755707 2.695033
v 0.001820 36.755707 -2.695033
v 0.515350 36.472549 1.382983
v -0.511710 36.472549 1.382983
v -0.511710 36.472549 -1.382983
v 0.515350 36.472549 -1.382983
v 0.001820 37.007797 3.863135
v 0.001820 37.007797 -3.863135
v 0.001820 42.869911 0.621754
v 0.001820 42.869911 -0.621754
v 4.812097 11.570413 13.805386
v -4.812097 11.570413 13.805386
v 4.812097 11.570413 4.812097
v -4.812097 11.570413 4.812097
v 1.244123 36.437553 1.291410
v 0.365114 36.836788 0.363294
v -0.361474 36.836788 0.363294
v -1.240482 36.437553 1.291410
v -0.361474 36.836788 -0.363294
v -1.240482 36.437553 -1.291410
v 1.244123 36.437553 -1.291410
v 0.365114 36.836788 -0.363294
v 0.873010 36.836788 0.871190
v -0.869369 36.836788 0.871190
v 0.873010 36.836788 -0.871190
v -0.869369 36.836788 -0.871190
v 0.365114 39.723480 0.363294
v -0.361474 39.723480 0.363294
v 0.365114 39.723480 -0.363294
v -0.361474 39.723480 -0.363294
v 0.122918 39.723480 0.363294
v -0.119278 39.723480 0.363294
v 0.365114 39.723480 -0.121098
v 0.365114 39.723480 0.121098
v -0.361474 39.723480 0.121098
v -0.361474 39.723480 -0.121098
v -0.119278 39.723480 -0.363294
v 0.122918 39.723480 -0.363294
v 0.122918 39.723480 -0.121098
v 0.122918 39.723480 0.121098
v -0.119278 39.723480 -0.121098
v -0.119278 39.723480 0.121098
v -0.023648 44.475994 0.632441
v -0.614498 44.592602 0.121098
v -0.614498 44.592602 -0.121098
v -0.035078 44.473839 -0.614498
v 0.402854 44.472164 0.121098
v 0.402854 44.472164 -0.121098
v -0.372302 44.592602 0.121098
v -0.372302 44.592602 -0.121098
v 0.122918 40.458370 0.363294
v -0.119278 40.458370 0.363294
v 0.365114 40.458370 -0.121098
v 0.365114 40.458370 0.121098
v -0.361474 40.458370 0.121098
v -0.361474 40.458370 -0.121098
v -0.119278 40.458370 -0.363294
v 0.122918 40.458370 -0.363294
v 0.122918 40.458370 0.121098
v 0.122918 40.458370 -0.121098
v -0.119278 40.458370 0.121098
v -0.023648 44.475994 0.390245
v -0.119278 40.458370 -0.121098
v -0.035078 44.473839 -0.372302
v -0.023648 44.708656 0.632441
v -0.493400 45.328728 0.000000
v -0.035078 44.706501 -0.614498
v 0.402854 44.704823 -0.121098
v 0.402854 44.704823 0.121098
v -0.023648 44.708656 0.390245
v -0.035078 44.706501 -0.372302
v 0.611281 44.592323 0.511343
v 0.178678 44.475994 0.632441
v 0.645050 44.551903 -0.041359
v 0.605180 44.472164 -0.121098
v 0.645050 44.551903 0.041359
v 0.605180 44.472164 0.121098
v 0.626627 44.590168 -0.493400
v 0.167249 44.473839 -0.614498
v 0.178678 44.475994 0.390245
v 0.167249 44.473839 -0.372302
v 0.138809 44.708656 0.632441
v 0.645050 44.625084 -0.041359
v 0.565311 44.704823 -0.121098
v 0.645050 44.625084 0.041359
v 0.565311 44.704823 0.121098
v 0.127379 44.706501 -0.614498
v 0.138809 44.708656 0.390245
v 0.127379 44.706501 -0.372302
vt 0.650179 0.188923
vt 0.609587 0.047632
vt 0.609587 0.787205
vt 0.650179 0.928496
vt 0.107478 -0.445033
vt 0.107478 0.261196
vt 0.813707 0.261196
vt 0.813707 -0.445033
vt 0.112553 0.813707
vt 0.818781 0.813707
vt 0.818781 0.107478
vt 0.112553 0.107478
vt 0.813707 -0.445033
vt 0.813707 0.261196
vt 0.107478 0.261196
vt 0.107478 -0.445033
vt 0.731483 0.987365
vt 0.709404 0.959492
vt 0.725385 0.928496
vt 0.793500 0.986682
vt 0.651692 0.825127
vt 0.269494 0.825127
vt 0.269494 0.825127
vt 0.651692 0.825127
vt 0.765977 0.047632
vt 0.765977 0.787205
vt 0.818781 -0.445033
vt 0.112553 -0.445033
vt 0.112553 0.261196
vt 0.818781 0.261196
vt 0.112553 -0.445033
vt 0.818781 -0.445033
vt 0.818781 0.261196
vt 0.112553 0.261196
vt 0.818781 0.813707
vt 0.818781 0.813707
vt 0.818781 0.813707
vt 0.818781 0.813707
vt nan nan
vt nan nan
vt nan nan
vt nan nan
vt 0.818781 0.813707
vt 0.112553 0.813707
vt 0.112553 0.813707
vt 0.112553 0.813707
vt 0.818781 0.813707
vt 0.112553 0.813707
vt 0.818781 0.107478
vt 0.112553 0.107478
vt 0.112553 0.107478
vt 0.818781 0.107478
vt 0.818781 0.107478
vt 0.818781 0.107478
vt 0.112553 0.107478
vt 0.112553 0.107478
vt 0.112553 0.813707
vt 0.818781 3.166667
vt 0.112553 3.166667
vt 0.818781 0.107478
vt 0.112553 0.107478
vt 0.112553 0.813707
vt nan nan
vt nan nan
vt nan nan
vt nan nan
vt 0.112553 0.107478
vt 0.818781 0.107478
vt 0.818781 -0.445033
vt 0.818781 0.261196
vt 0.112553 0.261196
vt 0.112553 -0.445033
vt 0.107478 -0.445033
vt 0.107478 0.261196
vt -2.150763 0.261196
vt -2.150763 -0.445033
vt 0.818781 -2.150763
vt 0.112553 -2.150763
vt 0.107478 0.261196
vt 0.107478 -0.445033
vt -2.150763 -0.445033
vt -2.150763 0.261196
vt 0.112553 -0.445033
vt 0.112553 0.261196
vt 0.818781 0.261196
vt 0.818781 -0.445033
vt 0.813707 0.261196
vt 0.813707 -0.445033
vt 3.166667 -0.445033
vt 3.166667 0.261196
vt 0.813707 -0.445033
vt 0.813707 0.261196
vt 3.166667 0.261196
vt 3.166667 -0.445033
vt 0.112553 3.166667
vt 0.818781 3.166667
vt 0.603030 0.419061
vt 0.328304 0.419061
vt 0.112553 0.261196
vt 0.818781 0.261196
vt 0.328304 0.419061
vt 0.603030 0.419061
vt 0.818781 0.261196
vt 0.112553 0.261196
vt 0.644081 0.987365
vt 0.666160 0.959492
vt 0.650179 0.928496
vt 0.582064 0.986682
vt 0.725385 0.188923
vt 0.531723 0.667262
vt 0.656766 0.825127
vt 0.399611 0.667262
vt 0.274568 0.825127
vt 0.531723 0.667262
vt 0.656766 0.825127
vt 0.399611 0.667262
vt 0.274568 0.825127
vt 0.796567 0.278789
vt 0.793500 0.984387
vt 0.709404 0.959492
vt 0.709404 0.959492
vt 0.709404 0.959492
vt 0.650179 0.188923
vt 0.578997 0.278789
vt 0.582064 0.984387
vt 0.666160 0.959492
vt 0.644081 0.987365
vt 0.582064 0.986682
vt 0.576109 0.278789
vt 0.793678 0.278789
vt 0.794791 0.984387
vt 0.574997 0.984387
vt 0.112553 0.107478
vt 0.818781 0.107478
vt 0.656866 0.102190
vt 0.656866 0.040359
vt 0.656866 0.040359
vt 0.656866 0.060969
vt 0.656866 0.081580
vt 0.656866 0.102190
vt 0.731483 0.987365
vt 0.793500 0.986682
vt 0.725385 0.928496
vt 0.578997 0.278789
vt 0.582064 0.984387
vt 0.793678 0.278789
vt 0.576109 0.278789
vt 0.574997 0.984387
vt 0.794791 0.984387
vt 0.796567 0.278789
vt 0.725385 0.188923
vt 0.793500 0.984387
vt 0.664664 0.987365
vt 0.702735 0.987365
vt 0.664664 0.987365
vt 0.731483 0.987365
vt 0.644081 0.987365
vt 0.666160 0.959492
vt 0.664664 0.987365
vt 0.702735 0.987365
vt 0.666160 0.959492
vt 0.672830 0.987365
vt 0.710901 0.987365
vt 0.710901 0.987365
vt 0.731483 0.987365
vt 0.644081 0.987365
vt 0.710901 0.987365
vt 0.672830 0.987365
vt 0.818781 -2.150763
vt 0.112553 -2.150763
vt 0.818781 0.107478
vt 0.818781 -2.150763
vt 0.112553 0.107478
vt 0.112553 -2.150763
vt 0.761919 1.018362
vt 0.613645 1.018362
vt 0.759031 1.018362
vt 0.610757 1.018362
vt 0.610757 1.018362
vt 0.759030 1.018362
vt 0.613645 1.018362
vt 0.761919 1.018362
vt 0.718698 0.040359
vt 0.613645 -0.002862
vt 0.761919 -0.002862
vt 0.718698 0.102190
vt 0.761919 0.145412
vt 0.613645 0.145412
vt 0.677477 0.060969
vt 0.677477 0.040359
vt 0.718698 0.040359
vt 0.698087 0.040359
vt 0.677477 0.102190
vt 0.698087 0.102190
vt 0.718698 0.102190
vt 0.718698 0.081580
vt 0.718698 0.060969
vt 0.698087 0.060969
vt 0.483770 0.442490
vt 0.447564 0.442490
vt 0.447564 0.442490
vt 0.483770 0.442490
vt 0.698087 0.081580
vt 0.698087 0.102190
vt 0.698087 0.081580
vt 0.447564 0.478696
vt 0.483770 0.478696
vt 0.483770 0.478696
vt 0.447564 0.478696
vt 0.677477 0.081580
vt 0.698087 0.040359
vt 0.677477 0.040359
vt 0.677477 0.060969
vt 0.677477 0.081580
vt 0.677477 0.060969
vt 0.698087 0.060969
vt 0.715305 0.060969
vt 0.711912 0.060969
vt 0.698087 0.060969
vt 0.677477 0.102190
vt 0.677477 0.081580
vt 0.677477 0.081580
vt 0.677477 0.102190
vt 0.656866 0.060969
vt 0.656866 0.060969
vt 0.698087 0.060969
vt 0.718698 0.081580
vt 0.718698 0.060969
vt 0.656866 0.081580
vt 0.677477 0.081580
vt 0.677477 0.060969
vt 0.656866 0.060969
vt 0.677477 0.102190
vt 0.715305 0.081580
vt 0.698087 0.081580
vt 0.698087 0.081580
vt 0.711912 0.081580
vt 0.411358 0.442490
vt 0.411358 0.478696
vt 0.411358 0.478696
vt 0.411358 0.442490
vt -0.000004 0.000000
vt -0.000002 -0.000000
vt 0.519976 0.442490
vt 0.519976 0.478696
vt 0.447564 0.514902
vt 0.477810 0.514902
vt 0.483770 0.514902
vt 0.447564 0.514902
vt 0.483770 0.442490
vt 0.483770 0.478696
vt 0.447564 0.406284
vt 0.447564 0.442490
vt 0.447564 0.406284
vt 0.447564 0.478696
vt 0.447564 0.478696
vt 0.447564 0.442490
vt 0.718698 0.067755
vt 0.718698 0.074794
vt 0.718698 0.074794
vt 0.718698 0.067755
vt 0.694695 0.102190
vt 0.691302 0.102190
vt 0.691302 0.060969
vt 0.677477 0.060969
vt 0.677477 0.040359
vt 0.691302 0.040359
vt 0.694695 0.081580
vt 0.691302 0.081580
vt 0.656866 0.081580
vt 0.656866 0.081580
vt 0.514016 0.478696
vt 0.000000 0.000000
vt 0.000002 0.000000
vt 0.514016 0.442490
vt 0.000000 0.000000
vt 0.000002 0.000000
vt 0.483770 0.406284
vt 0.477810 0.478696
vt 0.477810 0.442490
vt 0.447564 0.442490
vt 0.471850 0.442490
vt 0.677477 0.081580
vt 0.677477 0.060969
vt 0.677477 0.040359
vt 0.477810 0.406284
vt 0.422697 -0.190922
vt 0.422695 -0.190921
vt 0.698087 0.047144
vt 0.422699 -0.190921
vt 0.422698 -0.190921
vt 0.698087 0.088365
vt 0.422699 -0.190921
vt 0.422698 -0.190921
vt 0.698087 0.054184
vt 0.698087 0.095405
vt 0.694695 0.060969
vt 0.694695 0.040359
vn -0.7071 0.0000 -0.7071
vn -1.0000 0.0000 0.0000
vn 0.0000 -1.0000 0.0000
vn 1.0000 0.0000 0.0000
vn 0.1017 0.2649 0.9589
vn 0.9777 0.2102 0.0000
vn -0.9780 0.2086 0.0000
vn 0.0000 0.0000 1.0000
vn 0.0000 0.0000 -1.0000
vn 0.0000 1.0000 0.0000
vn 0.0000 0.1949 0.9808
vn 0.0000 0.1949 -0.9808
vn -0.1017 0.2649 -0.9589
vn 0.7071 0.0000 -0.7071
vn 0.1811 0.2494 0.9513
vn -0.1818 0.2492 0.9512
vn 0.1811 0.2494 -0.9513
vn -0.1818 0.2492 -0.9512
vn 0.3410 -0.0000 0.9401
vn 0.0000 0.2761 0.9611
vn 0.0000 -0.9404 -0.3400
vn 0.7899 -0.5449 0.2812
vn -0.3410 -0.0000 -0.9401
vn -0.1017 0.2649 0.9589
vn 1.0000 0.0043 0.0000
vn 0.1017 0.2649 -0.9589
vn 0.0000 0.2761 -0.9611
vn -0.3410 -0.0000 0.9401
vn -1.0000 0.0043 0.0000
vn 0.3410 -0.0000 -0.9401
vn 0.0000 0.9341 0.3569
vn 0.0000 -0.1546 0.9880
vn 0.7899 -0.5449 -0.2812
vn -0.7899 -0.5449 0.2812
vn 0.0000 -0.9404 0.3400
vn 0.9799 0.0641 -0.1891
vn -0.7899 -0.5449 -0.2812
vn 0.0000 0.9775 -0.2110
vn 0.0000 0.9775 0.2110
vn -0.9799 0.0641 -0.1891
vn 0.9799 0.0641 0.1891
vn 0.0000 -0.1546 -0.9880
vn -0.9799 0.0641 0.1891
vn 0.0000 0.7250 0.6888
vn 0.7324 0.6808 0.0000
vn -0.7324 0.6808 0.0000
vn 0.0000 0.7250 -0.6888
vn 0.0000 0.9341 -0.3569
vn 0.9867 0.1623 0.0000
vn 0.0000 0.1623 0.9867
vn -0.9981 -0.0611 0.0000
vn 0.9982 -0.0597 0.0000
vn 0.0000 -0.0624 -0.9980
vn -0.9976 0.0696 0.0000
vn -0.9997 0.0238 0.0000
vn -0.9998 0.0210 0.0000
vn 0.9981 0.0611 0.0000
vn -0.9867 0.1623 0.0000
vn 0.9999 -0.0110 0.0000
vn 0.9999 -0.0139 0.0000
vn 0.0000 0.0624 0.9980
vn 0.0000 0.0668 -0.9978
vn 0.0000 0.1623 -0.9867
vn 0.0000 -0.0668 0.9978
vn 0.8944 -0.4472 0.0000
vn 0.2597 -0.9657 0.0000
vn 0.2455 -0.9694 0.0000
vn 0.7071 0.7071 0.0000
vn 0.2391 0.9710 0.0000
vn 0.2269 0.9739 0.0000
vn 0.7957 0.1037 -0.5968
vn 0.7957 0.1037 0.5968
vn 0.2447 0.0419 -0.9687
vn 0.2582 0.0443 -0.9651
vn 0.2582 0.0443 0.9651
vn 0.2447 0.0419 0.9687
g Cube_Cube_matWall1
usemtl matWall1
s off
f 7/1/1 45/2/1 52/3/1 66/4/1
f 8/5/2 10/6/2 12/7/2 6/8/2
f 6/9/3 2/10/3 4/11/3 8/12/3
f 2/13/4 11/14/4 9/15/4 4/16/4
f 71/17/5 57/18/5 65/19/5 83/20/5
f 50/21/6 43/22/6 9/15/6 11/14/6
f 48/23/7 49/24/7 12/7/7 10/6/7
f 45/2/8 44/25/8 51/26/8 52/3/8
f 14/27/9 16/28/9 18/29/9 17/30/9
f 15/31/8 13/32/8 19/33/8 20/34/8
f 23/35/8 21/36/8 29/37/8 31/38/8
f 27/39/8 26/40/8 61/41/8 35/42/8
f 13/43/8 15/44/8 22/45/8 21/36/8
f 20/46/8 19/47/8 23/35/8 28/48/8
f 17/49/8 18/50/8 25/51/8 26/52/8
f 14/53/8 17/49/8 26/52/8 27/54/8
f 19/47/8 13/43/8 21/36/8 23/35/8
f 16/55/8 14/53/8 27/54/8 24/56/8
f 15/44/8 20/46/8 28/48/8 22/45/8
f 18/50/8 16/55/8 24/56/8 25/51/8
f 36/57/10 31/38/10 41/58/10 42/59/10
f 24/56/8 27/54/8 35/60/8 32/61/8
f 22/45/8 28/48/8 36/57/8 30/62/8
f 25/63/8 24/64/8 32/65/8 62/66/8
f 21/36/8 22/45/8 30/62/8 29/37/8
f 28/48/8 23/35/8 31/38/8 36/57/8
f 26/52/8 25/51/8 62/67/8 61/68/8
f 38/69/8 63/70/8 64/71/8 37/72/8
f 35/73/4 61/74/4 63/75/4 38/76/4
f 32/61/3 35/60/3 38/77/3 37/78/3
f 62/79/2 32/80/2 37/81/2 64/82/2
f 40/83/9 42/84/9 41/85/9 39/86/9
f 31/87/4 29/88/4 39/89/4 41/90/4
f 30/91/2 36/92/2 42/93/2 40/94/2
f 29/37/3 30/62/3 40/95/3 39/96/3
f 44/97/11 45/98/11 10/99/11 9/100/11
f 46/101/12 47/102/12 11/103/12 12/104/12
f 73/105/13 59/106/13 67/107/13 88/108/13
f 44/25/14 3/109/14 65/19/14 51/26/14
f 3/110/15 44/97/15 9/100/15 43/111/15
f 45/98/16 7/112/16 48/113/16 10/99/16
f 47/102/17 1/114/17 50/115/17 11/103/17
f 5/116/18 46/101/18 12/104/18 49/117/18
f 3/109/19 43/118/19 83/119/19 65/19/19
f 65/19/20 66/4/20 52/3/20 51/26/20
f 60/120/21 59/106/21 76/121/21
f 57/18/22 71/17/22 75/122/22
f 5/123/23 49/124/23 88/125/23 67/107/23
f 58/126/24 72/127/24 86/128/24 66/4/24
f 43/129/25 50/130/25 89/131/25 83/132/25
f 33/133/8 34/134/8 61/68/8 62/67/8
f 87/135/2 85/136/2 96/137/2 103/138/2 104/139/2 98/140/2
f 60/120/26 74/141/26 89/142/26 68/143/26
f 57/18/20 58/126/20 66/4/20 65/19/20
f 59/106/27 60/120/27 68/143/27 67/107/27
f 48/144/28 7/1/28 66/4/28 86/145/28
f 49/146/29 48/147/29 86/148/29 88/149/29
f 50/150/30 1/151/30 68/143/30 89/152/30
f 74/141/31 73/105/31 88/108/31 89/142/31
f 56/153/32 55/154/32 78/155/32
f 74/141/33 60/120/33 76/156/33
f 72/127/34 58/126/34 75/157/34
f 58/126/35 57/18/35 75/158/35
f 55/154/36 70/159/36 78/160/36
f 59/106/37 73/105/37 76/161/37
f 54/162/38 53/163/38 71/17/38 72/127/38
f 55/154/39 56/153/39 73/105/39 74/141/39
f 53/163/38 69/164/38 75/165/38 71/17/38
f 70/159/39 55/154/39 74/141/39 76/166/39
f 56/153/39 70/159/39 76/166/39 73/105/39
f 69/164/38 54/162/38 72/127/38 75/165/38
f 70/159/40 56/153/40 78/155/40
f 69/164/41 53/163/41 77/167/41
f 53/163/42 54/162/42 77/167/42
f 54/162/43 69/164/43 77/168/43
f 61/68/8 34/134/8 63/169/8
f 33/133/8 62/67/8 64/170/8
f 63/169/10 34/134/10 81/171/10 79/172/10
f 79/172/10 81/171/10 82/173/10 80/174/10
f 34/134/8 33/133/8 82/173/8 81/171/8
f 33/133/10 64/170/10 80/174/10 82/173/10
f 91/175/44 92/176/44 86/128/44 83/20/44
f 93/177/45 91/178/45 83/132/45 89/131/45
f 92/179/46 94/180/46 88/149/46 86/148/46
f 94/181/47 93/182/47 89/142/47 88/108/47
f 72/127/48 71/17/48 83/20/48 86/128/48
f 84/183/10 85/136/10 92/184/10 91/185/10
f 90/186/10 84/183/10 91/185/10 93/187/10
f 85/136/10 87/135/10 94/188/10 92/184/10
f 87/135/10 90/186/10 93/187/10 94/188/10
f 110/189/10 103/138/10 96/137/10 100/190/10
f 85/136/8 84/183/8 95/191/8 99/192/8 100/190/8 96/137/8
f 90/186/9 87/135/9 98/140/9 105/193/9 106/194/9 97/195/9
f 84/183/4 90/186/4 97/195/4 101/196/4 102/197/4 95/191/4
f 102/197/10 108/198/10 99/192/10 95/191/10
f 108/199/9 110/200/9 129/201/9 127/202/9
f 97/195/10 106/194/10 107/203/10 101/196/10
f 107/203/4 106/194/4 126/204/4 128/205/4
f 109/206/8 107/207/8 128/208/8 131/209/8
f 107/207/10 109/206/10 110/200/10 108/199/10
f 105/193/10 98/140/10 104/139/10 109/210/10
f 100/190/8 99/192/8 119/211/8 120/212/8
f 117/213/49 118/214/49 134/215/49
f 115/216/8 145/217/8 154/218/8 137/219/8
f 114/220/2 132/221/2 139/222/2 135/223/2
f 112/224/50 117/213/50 134/225/50
f 107/203/2 108/198/2 127/226/2 128/205/2
f 102/197/4 101/196/4 121/227/4 122/228/4
f 109/210/9 104/139/9 124/229/9 131/230/9
f 110/189/2 100/190/2 120/212/2 129/231/2
f 103/138/8 110/189/8 129/231/8 123/232/8
f 105/193/2 109/210/2 131/230/2 125/233/2
f 104/139/2 103/138/2 123/232/2 124/229/2
f 110/200/4 109/206/4 131/209/4 129/201/4
f 101/196/9 107/203/9 128/205/9 121/227/9
f 106/194/9 105/193/9 125/233/9 126/204/9
f 108/198/8 102/197/8 122/228/8 127/226/8
f 99/192/4 108/198/4 127/226/4 119/211/4
f 143/234/9 116/235/9 136/236/9 152/237/9
f 112/238/51 113/239/51 124/240/51 123/241/51
f 143/242/52 145/243/52 122/244/52 121/245/52
f 114/246/53 147/247/53 126/248/53 125/249/53
f 115/250/54 116/251/54 128/208/54 127/202/54
f 111/252/55 130/253/55 129/201/55 120/254/55
f 132/255/56 114/246/56 125/249/56 131/209/56
f 118/256/57 117/257/57 129/201/57 131/209/57
f 144/258/4 142/259/4 151/260/4 153/261/4
f 147/262/9 114/220/9 135/223/9 155/263/9
f 156/264/10 138/265/10 133/266/10 150/267/10
f 132/221/8 149/268/8 157/269/8 139/222/8
f 113/239/9 118/256/9 131/209/9 124/240/9
f 117/257/8 112/238/8 123/241/8 129/201/8
f 152/237/10 136/236/10 137/219/10 154/218/10
f 155/263/10 135/223/10 139/222/10 157/269/10
f 113/270/58 112/224/58 134/271/58
f 116/251/9 143/272/9 121/245/9 128/208/9
f 147/273/59 149/274/59 128/208/59 126/248/59
f 145/275/8 115/250/8 127/202/8 122/244/8
f 148/276/60 141/277/60 119/278/60 127/202/60
f 149/279/61 132/255/61 131/209/61 128/208/61
f 148/280/9 130/253/9 138/281/9 156/282/9
f 130/253/62 148/280/62 127/202/62 129/201/62
f 116/235/2 115/216/2 137/219/2 136/236/2
f 118/214/63 113/270/63 134/283/63
f 130/284/2 111/285/2 133/266/2 138/265/2
f 141/286/64 111/252/64 120/254/64 119/278/64
f 142/259/65 144/258/65 145/287/65 143/288/65
f 140/289/66 141/290/66 148/291/66
f 146/292/67 149/293/67 147/294/67
f 152/237/68 154/218/68 153/261/68 151/260/68
f 156/264/69 150/267/69 140/295/69
f 155/263/70 157/269/70 146/296/70
f 143/234/71 152/237/71 151/260/71 142/259/71
f 154/218/72 145/217/72 144/258/72 153/261/72
f 146/296/73 147/262/73 155/263/73
f 148/297/74 156/264/74 140/295/74
f 150/267/75 141/298/75 140/289/75
f 146/292/76 157/269/76 149/268/76
f 111/285/8 141/298/8 150/267/8 133/266/8
