# Blender v2.90.1 OBJ File: 'wall1-new.blend'
# www.blender.org
mtllib wall1.mtl
o Cube
v 1.313327 22.697216 -4.701187
v 7.020656 0.582449 -7.020656
v 1.313327 22.697216 4.701187
v 7.020656 0.582449 7.020656
v -1.313327 22.697216 -4.701187
v -7.020656 0.582449 -7.020656
v -1.313327 22.697216 4.701187
v -7.020656 0.582449 7.020656
v 7.020656 14.623760 7.020656
v -7.020656 14.623760 7.020656
v 7.020656 14.623760 -7.020656
v -7.020656 14.623760 -7.020656
v 7.020656 0.582449 -7.020656
v 7.020656 0.582449 7.020656
v -7.020656 0.582449 -7.020656
v -7.020656 0.582449 7.020656
v 7.020656 14.623760 7.020656
v -7.020656 14.623760 7.020656
v 7.020656 14.623760 -7.020656
v -7.020656 14.623760 -7.020656
v 7.020656 0.582449 -7.020656
v -7.020656 0.582449 -7.020656
v 7.020656 14.623760 -7.020656
v -7.020656 0.582449 7.020656
v -7.020656 14.623760 7.020656
v 7.020656 14.623760 7.020656
v 7.020656 0.582449 7.020656
v -7.020656 14.623760 -7.020656
v 7.020656 0.582449 -7.020656
v -7.020656 0.582449 -7.020656
v 7.020656 14.623760 -7.020656
v -7.020656 0.582449 7.020656
v -7.020656 14.623760 7.020656
v 7.020656 14.623760 7.020656
v 7.020656 0.582449 7.020656
v -7.020656 14.623760 -7.020656
v -7.020656 0.582449 51.919235
v -7.020656 14.623760 51.919235
v 7.020656 14.623760 51.919235
v 7.020656 0.582449 51.919235
v 7.020656 0.582449 -53.802448
v -7.020656 0.582449 -53.802448
v 7.020656 14.623760 -53.802448
v -7.020656 14.623760 -53.802448
v 3.799455 25.835903 3.799455
v 2.731065 17.762447 6.118924
v -2.731065 17.762447 6.118924
v -2.731065 17.762447 -6.118924
v 2.731065 17.762447 -6.118924
v -3.799455 25.835903 3.799455
v -3.799455 25.835903 -3.799455
v 3.799455 25.835903 -3.799455
v 2.731065 43.593040 6.118924
v -2.731065 43.593040 6.118924
v -2.731065 43.593040 -6.118924
v 2.731065 43.593040 -6.118924
v 0.664842 50.732544 4.799194
v -0.664842 50.732544 4.799194
v 0.664842 50.732544 -4.799194
v -0.664842 50.732544 -4.799194
v 0.755190 49.610394 4.390164
v -0.755190 49.610394 4.390164
v -0.755190 49.610394 -4.390164
v 0.755190 49.610394 -4.390164
v 7.020656 14.623760 7.020656
v -7.020656 14.623760 7.020656
v 7.020656 14.623760 51.919235
v -7.020656 14.623760 51.919235
v 3.799455 51.666496 3.799455
v -3.799455 51.666496 3.799455
v -3.799455 51.666496 -3.799455
v 3.799455 51.666496 -3.799455
v 1.313327 48.527809 4.701187
v -1.313327 48.527809 4.701187
v -1.313327 48.527809 -4.701187
v 1.313327 48.527809 -4.701187
v 0.000000 51.425503 8.010125
v 0.000000 51.425503 -8.010125
v 1.526304 50.583912 4.110477
v -1.526304 50.583912 4.110477
v -1.526304 50.583912 -4.110477
v 1.526304 50.583912 -4.110477
v 0.000000 52.174763 11.481938
v 0.000000 52.174763 -11.481938
v 0.000000 69.598030 1.847967
v 0.000000 69.598030 -1.847967
vt 0.399611 0.667262
vt 0.328304 0.419061
vt 0.328304 1.718249
vt 0.399611 1.966450
vt 0.107478 -0.445033
vt 0.107478 0.261196
vt 0.813707 0.261196
vt 0.813707 -0.445033
vt 0.112553 0.813707
vt 0.818781 0.813707
vt 0.818781 0.107478
vt 0.112553 0.107478
vt 0.813707 -0.445033
vt 0.813707 0.261196
vt 0.107478 0.261196
vt 0.107478 -0.445033
vt 0.269494 0.825127
vt 0.651692 0.825127
vt 0.651692 2.124315
vt 0.269494 2.124315
vt 0.269494 0.825127
vt 0.651692 0.825127
vt 0.603030 0.419061
vt 0.603030 1.718249
vt 0.818781 -0.445033
vt 0.112553 -0.445033
vt 0.112553 0.261196
vt 0.818781 0.261196
vt 0.112553 -0.445033
vt 0.818781 -0.445033
vt 0.818781 0.261196
vt 0.112553 0.261196
vt 0.818781 0.813707
vt 0.818781 0.813707
vt 0.818781 0.813707
vt 0.818781 0.813707
vt nan nan
vt nan nan
vt nan nan
vt nan nan
vt 0.818781 0.813707
vt 0.112553 0.813707
vt 0.112553 0.813707
vt 0.112553 0.813707
vt 0.818781 0.813707
vt 0.112553 0.813707
vt 0.818781 0.107478
vt 0.112553 0.107478
vt 0.112553 0.107478
vt 0.818781 0.107478
vt 0.818781 0.107478
vt 0.818781 0.107478
vt 0.112553 0.107478
vt 0.112553 0.107478
vt 0.818781 0.107478
vt 0.112553 0.107478
vt 0.112553 -2.150763
vt 0.818781 -2.150763
vt 0.112553 0.813707
vt 0.818781 3.166667
vt 0.112553 3.166667
vt 0.818781 0.107478
vt 0.112553 0.107478
vt 0.112553 0.813707
vt nan nan
vt nan nan
vt nan nan
vt nan nan
vt 0.112553 0.107478
vt 0.818781 0.107478
vt 0.818781 -0.445033
vt 0.818781 0.261196
vt 0.112553 0.261196
vt 0.112553 -0.445033
vt 0.107478 -0.445033
vt 0.107478 0.261196
vt -2.150763 0.261196
vt -2.150763 -0.445033
vt 0.818781 -2.150763
vt 0.112553 -2.150763
vt 0.107478 0.261196
vt 0.107478 -0.445033
vt -2.150763 -0.445033
vt -2.150763 0.261196
vt 0.112553 -0.445033
vt 0.112553 0.261196
vt 0.818781 0.261196
vt 0.818781 -0.445033
vt 0.813707 0.261196
vt 0.813707 -0.445033
vt 3.166667 -0.445033
vt 3.166667 0.261196
vt 0.813707 -0.445033
vt 0.813707 0.261196
vt 3.166667 0.261196
vt 3.166667 -0.445033
vt 0.112553 3.166667
vt 0.818781 3.166667
vt 0.112553 0.261196
vt 0.818781 0.261196
vt 0.328304 0.419061
vt 0.603030 0.419061
vt 0.818781 0.261196
vt 0.112553 0.261196
vt 0.399611 0.667262
vt 0.274568 0.825127
vt 0.274568 2.124315
vt 0.399611 1.966450
vt 0.531723 0.667262
vt 0.531723 1.966450
vt 0.656766 0.825127
vt 0.274568 0.825127
vt 0.531723 0.667262
vt 0.656766 0.825127
vt 0.656766 0.651692
vt 0.274568 0.651692
vt 0.274568 0.269493
vt 0.656766 0.269493
vt 0.531723 1.966450
vt 0.603030 1.718249
vt 0.328304 1.718249
vt 0.503650 2.020900
vt 0.427683 2.020900
vt 0.503650 2.020900
vt 0.503650 2.020900
vt 0.542435 2.069865
vt 0.503650 2.020900
vt 0.274568 2.124315
vt 0.269494 2.124315
vt 0.651692 2.124315
vt 0.656766 2.124315
vt 0.656766 2.124315
vt 0.112553 -2.150763
vt 0.818781 -2.150763
vt 0.388899 2.069865
vt 0.542435 2.069865
vt 0.388899 2.069865
vt 0.427683 2.020900
vt 0.425055 2.069865
vt 0.491934 2.069865
vt 0.425055 2.069865
vt 0.542435 2.069865
vt 0.388899 2.069865
vt 0.427683 2.020900
vt 0.425055 2.069865
vt 0.491934 2.069865
vt 0.427683 2.020900
vt 0.439400 2.069865
vt 0.506279 2.069865
vt 0.506279 2.069865
vt 0.542435 2.069865
vt 0.388899 2.069865
vt 0.506279 2.069865
vt 0.439400 2.069865
vn -0.7071 0.0000 -0.7071
vn -1.0000 0.0000 0.0000
vn 0.0000 -1.0000 0.0000
vn 1.0000 0.0000 0.0000
vn 0.9611 0.2761 0.0000
vn -0.9611 0.2761 0.0000
vn 0.0000 0.0000 1.0000
vn 0.0000 0.0000 -1.0000
vn 0.0000 1.0000 0.0000
vn 0.0000 0.2761 0.9611
vn 0.0000 0.2761 -0.9611
vn -0.3410 0.0000 -0.9401
vn 0.7071 0.0000 -0.7071
vn 0.0000 -0.9404 -0.3400
vn 0.7899 -0.5449 0.2812
vn -0.3410 0.0000 0.9401
vn 0.7071 0.0000 0.7071
vn 0.3410 0.0000 0.9401
vn -0.7071 0.0000 0.7071
vn 0.3410 0.0000 -0.9401
vn 0.0000 -0.1546 0.9880
vn 0.7899 -0.5449 -0.2812
vn -0.7899 -0.5449 0.2812
vn 0.0000 -0.9404 0.3400
vn 0.9799 0.0641 -0.1891
vn -0.7899 -0.5449 -0.2812
vn 0.0000 0.9775 -0.2109
vn 0.0000 0.9775 0.2109
vn -0.0000 0.9775 -0.2110
vn -0.0000 0.9775 0.2110
vn -0.9799 0.0641 -0.1891
vn 0.9799 0.0641 0.1891
vn 0.0000 -0.1546 -0.9880
vn -0.9799 0.0641 0.1891
g Cube_Cube_matWall1
usemtl matWall1
s off
f 7/1/1 47/2/1 54/3/1 74/4/1
f 8/5/2 10/6/2 12/7/2 6/8/2
f 6/9/3 2/10/3 4/11/3 8/12/3
f 2/13/4 11/14/4 9/15/4 4/16/4
f 45/17/4 52/18/4 72/19/4 69/20/4
f 52/18/5 45/17/5 9/15/5 11/14/5
f 50/21/6 51/22/6 12/7/6 10/6/6
f 47/2/7 46/23/7 53/24/7 54/3/7
f 14/25/8 16/26/8 18/27/8 17/28/8
f 15/29/7 13/30/7 19/31/7 20/32/7
f 23/33/7 21/34/7 29/35/7 31/36/7
f 27/37/7 26/38/7 65/39/7 35/40/7
f 13/41/7 15/42/7 22/43/7 21/34/7
f 20/44/7 19/45/7 23/33/7 28/46/7
f 17/47/7 18/48/7 25/49/7 26/50/7
f 14/51/7 17/47/7 26/50/7 27/52/7
f 19/45/7 13/41/7 21/34/7 23/33/7
f 16/53/7 14/51/7 27/52/7 24/54/7
f 15/42/7 20/44/7 28/46/7 22/43/7
f 18/48/7 16/53/7 24/54/7 25/49/7
f 34/55/9 33/56/9 38/57/9 39/58/9
f 36/59/9 31/36/9 43/60/9 44/61/9
f 24/54/7 27/52/7 35/62/7 32/63/7
f 22/43/7 28/46/7 36/59/7 30/64/7
f 25/65/7 24/66/7 32/67/7 66/68/7
f 21/34/7 22/43/7 30/64/7 29/35/7
f 28/46/7 23/33/7 31/36/7 36/59/7
f 26/50/7 25/49/7 66/69/7 65/70/7
f 40/71/7 67/72/7 68/73/7 37/74/7
f 35/75/4 65/76/4 67/77/4 40/78/4
f 32/63/3 35/62/3 40/79/3 37/80/3
f 66/81/2 32/82/2 37/83/2 68/84/2
f 42/85/8 44/86/8 43/87/8 41/88/8
f 31/89/4 29/90/4 41/91/4 43/92/4
f 30/93/2 36/94/2 44/95/2 42/96/2
f 29/35/3 30/64/3 42/97/3 41/98/3
f 46/23/10 47/2/10 10/99/10 9/100/10
f 48/101/11 49/102/11 11/103/11 12/104/11
f 5/105/12 51/106/12 71/107/12 75/108/12
f 46/23/13 3/109/13 73/110/13 53/24/13
f 3/109/10 46/23/10 9/100/10 45/111/10
f 47/2/10 7/1/10 50/112/10 10/99/10
f 49/102/11 1/113/11 52/114/11 11/103/11
f 5/105/11 48/101/11 12/104/11 51/106/11
f 72/115/9 71/116/9 70/117/9 69/118/9
f 73/110/10 74/4/10 54/3/10 53/24/10
f 75/108/11 76/119/11 56/120/11 55/121/11
f 64/122/14 63/123/14 84/124/14
f 61/125/15 79/126/15 83/127/15
f 50/112/16 7/1/16 74/4/16 70/128/16
f 49/102/8 48/101/8 55/121/8 56/120/8
f 51/22/2 50/21/2 70/129/2 71/130/2
f 1/113/17 49/102/17 56/120/17 76/119/17
f 3/109/18 45/111/18 69/131/18 73/110/18
f 48/101/19 5/105/19 75/108/19 55/121/19
f 52/114/20 1/113/20 76/119/20 72/132/20
f 33/56/7 34/55/7 65/70/7 66/69/7
f 39/58/7 38/57/7 68/133/7 67/134/7
f 38/57/7 33/56/7 66/69/7 68/133/7
f 34/55/7 39/58/7 67/134/7 65/70/7
f 80/135/10 79/126/10 69/131/10 70/128/10
f 82/136/11 81/137/11 71/107/11 72/132/11
f 61/125/10 62/138/10 74/4/10 73/110/10
f 63/123/11 64/122/11 76/119/11 75/108/11
f 62/138/10 80/135/10 70/128/10 74/4/10
f 79/126/10 61/125/10 73/110/10 69/131/10
f 64/122/11 82/136/11 72/132/11 76/119/11
f 81/137/11 63/123/11 75/108/11 71/107/11
f 60/139/21 59/140/21 86/141/21
f 82/136/22 64/122/22 84/142/22
f 80/135/23 62/138/23 83/143/23
f 62/138/24 61/125/24 83/144/24
f 59/140/25 78/145/25 86/146/25
f 63/123/26 81/137/26 84/147/26
f 58/148/27 57/149/27 79/126/27 80/135/27
f 59/140/28 60/139/28 81/137/28 82/136/28
f 57/149/29 77/150/29 83/151/29 79/126/29
f 78/145/30 59/140/30 82/136/30 84/152/30
f 60/139/30 78/145/30 84/152/30 81/137/30
f 77/150/29 58/148/29 80/135/29 83/151/29
f 78/145/31 60/139/31 86/141/31
f 77/150/32 57/149/32 85/153/32
f 57/149/33 58/148/33 85/153/33
f 58/148/34 77/150/34 85/154/34
