# Blender v2.77 (sub 0) OBJ File: 'REEL.blend'
# www.blender.org
mtllib reel.mtl
o Cylinder_Cylinder.001
v 2.500000 -0.000002 -0.499998
v 2.500000 -0.000002 0.500002
v 2.165063 -1.250001 -0.499999
v 2.165062 -1.250001 0.500001
v 1.249999 -2.165064 -0.499999
v 1.249998 -2.165064 0.500001
v -0.000001 -2.500000 -0.500000
v -0.000002 -2.500000 0.500000
v -1.250001 -2.165063 -0.500001
v -1.250002 -2.165063 0.499999
v -2.165064 -1.249999 -0.500001
v -2.165064 -1.249999 0.499999
v -2.500000 0.000001 -0.500002
v -2.500000 0.000001 0.499998
v -2.165063 1.250001 -0.500001
v -2.165063 1.250001 0.499999
v -1.249999 2.165064 -0.500001
v -1.250000 2.165064 0.499999
v 0.000001 2.500000 -0.500000
v 0.000000 2.500000 0.500000
v 1.250000 2.165064 -0.499999
v 1.250000 2.165064 0.500001
v 2.165064 1.250000 -0.499999
v 2.165063 1.250000 0.500001
vt 0.4984 0.9594
vt 0.4984 0.6641
vt 0.7438 0.6641
vt 0.7438 0.9594
vt 0.9998 0.6660
vt 0.9998 0.9588
vt 0.7524 0.9588
vt 0.7524 0.6660
vt 0.2495 0.3654
vt 0.2495 0.6658
vt 0.0083 0.6658
vt 0.0083 0.3654
vt 0.4969 0.3680
vt 0.4969 0.6632
vt 0.2515 0.6632
vt 0.2515 0.3680
vt 0.5092 0.6624
vt 0.5092 0.3646
vt 0.7524 0.3646
vt 0.7524 0.6624
vt 0.7557 0.6641
vt 0.7557 0.3663
vt 0.9990 0.3663
vt 0.9990 0.6641
vt 0.0031 0.3443
vt 0.0031 0.0463
vt 0.2462 0.0463
vt 0.2462 0.3443
vt 0.4944 0.0480
vt 0.4944 0.3432
vt 0.2491 0.3432
vt 0.2491 0.0480
vt 0.7438 0.0555
vt 0.7438 0.3508
vt 0.4984 0.3508
vt 0.4984 0.0555
vt 0.7613 0.0539
vt 0.7613 0.3492
vt 1.0066 0.3492
vt 1.0066 0.0539
vt 0.2514 0.9607
vt 0.2514 0.6629
vt 0.4947 0.6629
vt 0.4947 0.9607
vt 0.0033 0.9630
vt 0.0033 0.6653
vt 0.2467 0.6653
vt 0.2467 0.9630
vt 0.5000 1.0000
vt 0.7500 0.9330
vt 0.9330 0.7500
vt 1.0000 0.5000
vt 0.9330 0.2500
vt 0.7500 0.0670
vt 0.5000 0.0000
vt 0.2500 0.0670
vt 0.0670 0.2500
vt 0.0000 0.5000
vt 0.0670 0.7500
vt 0.2500 0.9330
vt 0.5000 1.0000
vt 0.7500 0.9330
vt 0.9330 0.7500
vt 1.0000 0.5000
vt 0.9330 0.2500
vt 0.7500 0.0670
vt 0.5000 0.0000
vt 0.2500 0.0670
vt 0.0670 0.2500
vt 0.0000 0.5000
vt 0.0670 0.7500
vt 0.2500 0.9330
vn 0.9659 -0.2588 0.0000
vn 0.7071 -0.7071 0.0000
vn 0.2588 -0.9659 0.0000
vn -0.2588 -0.9659 -0.0000
vn -0.7071 -0.7071 -0.0000
vn -0.9659 -0.2588 -0.0000
vn -0.9659 0.2588 -0.0000
vn -0.7071 0.7071 -0.0000
vn -0.2588 0.9659 -0.0000
vn 0.2588 0.9659 0.0000
vn 0.9659 0.2588 0.0000
vn 0.7071 0.7071 0.0000
vn -0.0000 0.0000 1.0000
vn 0.0000 -0.0000 -1.0000
g Cylinder_Cylinder.001_None
usemtl None
s off
f 1/1/1 2/2/1 4/3/1 3/4/1
f 3/5/2 4/6/2 6/7/2 5/8/2
f 5/9/3 6/10/3 8/11/3 7/12/3
f 7/13/4 8/14/4 10/15/4 9/16/4
f 9/17/5 10/18/5 12/19/5 11/20/5
f 11/21/6 12/22/6 14/23/6 13/24/6
f 13/25/7 14/26/7 16/27/7 15/28/7
f 15/29/8 16/30/8 18/31/8 17/32/8
f 17/33/9 18/34/9 20/35/9 19/36/9
f 19/37/10 20/38/10 22/39/10 21/40/10
f 23/41/11 24/42/11 2/43/11 1/44/11
f 21/45/12 22/46/12 24/47/12 23/48/12
g Cylinder_Cylinder.001_None_NONE
usemtl None_NONE
f 4/49/13 2/50/13 24/51/13 22/52/13 20/53/13 18/54/13 16/55/13 14/56/13 12/57/13 10/58/13 8/59/13 6/60/13
f 1/61/14 3/62/14 5/63/14 7/64/14 9/65/14 11/66/14 13/67/14 15/68/14 17/69/14 19/70/14 21/71/14 23/72/14
